<svg xmlns="http://www.w3.org/2000/svg" version="1.1" xmlns:xlink="http://www.w3.org/1999/xlink" xmlns:svgjs="http://svgjs.com/svgjs" width="1440" height="560" preserveAspectRatio="none" viewBox="0 0 1440 560"><g mask="url(&quot;#SvgjsMask1000&quot;)" fill="none"><rect width="1440" height="560" x="0" y="0" fill="#0e2a47"></rect><g transform="translate(0, 0)" stroke-linecap="round"><path d="M260 193.03 L260 366.97" stroke-width="15" stroke="#dd1133"></path><path d="M280 202.25 L280 357.75" stroke-width="15" stroke="#3a7cc3"></path><path d="M300 231.94 L300 328.06" stroke-width="15" stroke="#3a7cc3"></path><path d="M320 156.38 L320 403.63" stroke-width="15" stroke="#3a7cc3"></path><path d="M340 244.57 L340 315.43" stroke-width="15" stroke="#dd1133"></path><path d="M360 128.52 L360 431.48" stroke-width="15" stroke="#3a7cc3"></path><path d="M380 208.59 L380 351.41" stroke-width="15" stroke="#dd1133"></path><path d="M400 192.65 L400 367.35" stroke-width="15" stroke="#dd1133"></path><path d="M420 115.69 L420 444.31" stroke-width="15" stroke="#3a7cc3"></path><path d="M440 203.26 L440 356.74" stroke-width="15" stroke="#dd1133"></path><path d="M460 257.98 L460 302.02" stroke-width="15" stroke="#3a7cc3"></path><path d="M480 142.6 L480 417.39" stroke-width="15" stroke="#3a7cc3"></path><path d="M500 162.94 L500 397.06" stroke-width="15" stroke="#dd1133"></path><path d="M520 173.36 L520 386.64" stroke-width="15" stroke="#dd1133"></path><path d="M540 161.83 L540 398.17" stroke-width="15" stroke="#3a7cc3"></path><path d="M560 184.51 L560 375.49" stroke-width="15" stroke="#dd1133"></path><path d="M580 200.83 L580 359.17" stroke-width="15" stroke="#3a7cc3"></path><path d="M600 254.17 L600 305.83" stroke-width="15" stroke="#3a7cc3"></path><path d="M620 136.83 L620 423.17" stroke-width="15" stroke="#3a7cc3"></path><path d="M640 122.81 L640 437.19" stroke-width="15" stroke="#3a7cc3"></path><path d="M660 239.95 L660 320.05" stroke-width="15" stroke="#3a7cc3"></path><path d="M680 202.24 L680 357.76" stroke-width="15" stroke="#dd1133"></path><path d="M700 221.75 L700 338.25" stroke-width="15" stroke="#dd1133"></path><path d="M720 200.33 L720 359.67" stroke-width="15" stroke="#dd1133"></path><path d="M740 190.64 L740 369.36" stroke-width="15" stroke="#3a7cc3"></path><path d="M760 192.57 L760 367.43" stroke-width="15" stroke="#dd1133"></path><path d="M780 127.75 L780 432.25" stroke-width="15" stroke="#3a7cc3"></path><path d="M800 153.99 L800 406.01" stroke-width="15" stroke="#3a7cc3"></path><path d="M820 192.63 L820 367.37" stroke-width="15" stroke="#3a7cc3"></path><path d="M840 230.08 L840 329.92" stroke-width="15" stroke="#dd1133"></path><path d="M860 261.23 L860 298.77" stroke-width="15" stroke="#dd1133"></path><path d="M880 128.06 L880 431.94" stroke-width="15" stroke="#dd1133"></path><path d="M900 258.44 L900 301.56" stroke-width="15" stroke="#dd1133"></path><path d="M920 167.97 L920 392.03" stroke-width="15" stroke="#dd1133"></path><path d="M940 255.1 L940 304.89" stroke-width="15" stroke="#dd1133"></path><path d="M960 167.16 L960 392.85" stroke-width="15" stroke="#3a7cc3"></path><path d="M980 235.47 L980 324.52" stroke-width="15" stroke="#3a7cc3"></path><path d="M1000 124.65 L1000 435.36" stroke-width="15" stroke="#3a7cc3"></path><path d="M1020 202.64 L1020 357.36" stroke-width="15" stroke="#3a7cc3"></path><path d="M1040 182.03 L1040 377.97" stroke-width="15" stroke="#3a7cc3"></path><path d="M1060 171.05 L1060 388.95" stroke-width="15" stroke="#3a7cc3"></path><path d="M1080 168.63 L1080 391.38" stroke-width="15" stroke="#3a7cc3"></path><path d="M1100 256.95 L1100 303.05" stroke-width="15" stroke="#dd1133"></path><path d="M1120 127.69 L1120 432.31" stroke-width="15" stroke="#3a7cc3"></path><path d="M1140 238.97 L1140 321.03" stroke-width="15" stroke="#dd1133"></path><path d="M1160 199.04 L1160 360.96" stroke-width="15" stroke="#3a7cc3"></path><path d="M1180 219.49 L1180 340.51" stroke-width="15" stroke="#3a7cc3"></path></g></g><defs><mask id="SvgjsMask1000"><rect width="1440" height="560" fill="#ffffff"></rect></mask></defs></svg>